<svg xmlns="http://www.w3.org/2000/svg" width="960" height="600" viewBox="0 0 960 600" role="img" aria-labelledby="title desc">
  <title id="title">AI provider settings screenshot</title>
  <desc id="desc">Synthetic ReboundIQ demo screenshot for /settings/ai-providers.</desc>
  <defs>
    <linearGradient id="bg" x1="0" y1="0" x2="1" y2="1">
      <stop offset="0" stop-color="#020617"/>
      <stop offset="0.62" stop-color="#111827"/>
      <stop offset="1" stop-color="#0e7490"/>
    </linearGradient>
  </defs>
  <rect width="960" height="600" fill="url(#bg)"/>
  <rect x="32" y="32" width="896" height="536" rx="18" fill="#050816" stroke="#1f2937"/>
  <rect x="32" y="32" width="896" height="54" rx="18" fill="#0b1120"/>
  <circle cx="64" cy="59" r="7" fill="#ef4444"/>
  <circle cx="88" cy="59" r="7" fill="#f59e0b"/>
  <circle cx="112" cy="59" r="7" fill="#22c55e"/>
  <rect x="152" y="47" width="362" height="24" rx="8" fill="#111827" stroke="#273449"/>
  <text x="168" y="64" fill="#94a3b8" font-family="Inter, Segoe UI, Arial, sans-serif" font-size="12" font-weight="500">localhost:3000/settings/ai-providers</text>
  <rect x="64" y="122" width="240" height="34" rx="8" fill="#22d3ee" opacity="0.18" stroke="#22d3ee" stroke-opacity="0.5"/>
  <text x="80" y="145" fill="#d1fae5" font-family="Inter, Segoe UI, Arial, sans-serif" font-size="14" font-weight="700">ReboundIQ local-first demo</text>
  <text x="64" y="208" fill="#ffffff" font-family="Inter, Segoe UI, Arial, sans-serif" font-size="38" font-weight="800">Ollama gemma3:4b</text>
  <text x="64" y="242" fill="#cbd5e1" font-family="Inter, Segoe UI, Arial, sans-serif" font-size="18" font-weight="600">AI provider settings</text>
  <rect x="704" y="132" width="128" height="34" rx="8" fill="#22d3ee" opacity="0.22" stroke="#22d3ee" stroke-opacity="0.55"/><text x="718" y="154" fill="#f8fafc" font-family="Inter, Segoe UI, Arial, sans-serif" font-size="13" font-weight="600">Local AI</text>
  <rect x="704" y="178" width="128" height="34" rx="8" fill="#f59e0b" opacity="0.22" stroke="#f59e0b" stroke-opacity="0.55"/><text x="718" y="200" fill="#f8fafc" font-family="Inter, Segoe UI, Arial, sans-serif" font-size="13" font-weight="600">No auto-send</text>
  <rect x="64" y="274" width="240" height="142" rx="10" fill="#111827" stroke="#273449"/>
<text x="82" y="310" fill="#22d3ee" font-family="Inter, Segoe UI, Arial, sans-serif" font-size="16" font-weight="800">01</text>
<text x="82" y="352" fill="#f9fafb" font-family="Inter, Segoe UI, Arial, sans-serif" font-size="18" font-weight="700">Remote base URLs rejected</text>
<rect x="82" y="378" width="150" height="10" rx="5" fill="#22d3ee" opacity="0.72"/>
<rect x="334" y="274" width="240" height="142" rx="10" fill="#111827" stroke="#273449"/>
<text x="352" y="310" fill="#22d3ee" font-family="Inter, Segoe UI, Arial, sans-serif" font-size="16" font-weight="800">02</text>
<text x="352" y="352" fill="#f9fafb" font-family="Inter, Segoe UI, Arial, sans-serif" font-size="18" font-weight="700">External AI disabled</text>
<rect x="352" y="378" width="174" height="10" rx="5" fill="#22d3ee" opacity="0.72"/>
<rect x="604" y="274" width="240" height="142" rx="10" fill="#111827" stroke="#273449"/>
<text x="622" y="310" fill="#22d3ee" font-family="Inter, Segoe UI, Arial, sans-serif" font-size="16" font-weight="800">03</text>
<text x="622" y="352" fill="#f9fafb" font-family="Inter, Segoe UI, Arial, sans-serif" font-size="18" font-weight="700">Redaction required</text>
<rect x="622" y="378" width="198" height="10" rx="5" fill="#22d3ee" opacity="0.72"/>
  <rect x="64" y="466" width="832" height="58" rx="12" fill="#0f172a" stroke="#243244"/>
  <text x="88" y="502" fill="#cbd5e1" font-family="Inter, Segoe UI, Arial, sans-serif" font-size="15" font-weight="600">Planning guidance only. Review employment, immigration, tax, and financial decisions with qualified professionals.</text>
</svg>
